<svg width="30" height="30" viewBox="0 0 30 30" fill="none" xmlns="http://www.w3.org/2000/svg">
<g clip-path="url(#clip0_301_25)">
<path d="M27.0667 4.40002C26.1467 4.76002 23.84 5.62669 21.9333 6.33335C16.36 8.40002 12.84 9.70669 11.2 10.3334C10.36 10.6534 8.10666 11.4934 6.2 12.2C4.29333 12.9067 2.24 13.6667 1.62666 13.8934C0.466663 14.3334 -3.8147e-06 14.72 -3.8147e-06 15.28C-3.8147e-06 15.7734 0.426663 16.0934 1.62666 16.4534C2.24 16.6534 3.82666 17.1467 5.16 17.5734L7.6 18.3334L9.01333 22.56C10.5067 27.04 10.6533 27.3334 11.4267 27.3334C11.76 27.3334 12.0133 27.12 14.5733 24.7067C15.2933 24.0267 15.92 23.4667 15.9867 23.4667C16.04 23.4667 17.7067 24.64 19.6667 26.0667C22.96 28.4534 23.2933 28.6667 23.8 28.6667C24.5733 28.6667 25.0133 28.2934 25.2533 27.4267C25.36 27.04 25.7333 25.3867 26.0667 23.7334C26.6533 20.8934 27.84 15.1867 29.32 8.04002C29.6933 6.25336 30 4.70669 30 4.60002C30 4.28002 29.3867 3.73335 29.04 3.74669C28.8667 3.74669 27.9867 4.04002 27.0667 4.40002ZM24.6 8.26669C24.64 8.33335 24.6267 8.48002 24.5733 8.57335C24.52 8.68002 21.6133 11.32 18.1333 14.4534L11.8 20.1467L11.64 21.7067C11.5467 22.56 11.4267 23.5334 11.3867 23.8667L11.2933 24.4667L11.0667 23.7334C10.9333 23.3334 10.48 21.8534 10.0667 20.4667C9.64 19.0667 9.26666 17.8667 9.24 17.7867C9.21333 17.6934 9.98666 17.12 10.96 16.5067C11.9333 15.88 14.6 14.1867 16.8667 12.7334C19.1467 11.28 21.6933 9.65335 22.5333 9.10669C24.0267 8.16002 24.4267 8.00002 24.6 8.26669Z" fill="#ffffff"/>
</g>
<defs>
<clipPath id="clip0_301_25">
<rect width="30" height="30" fill="white"/>
</clipPath>
</defs>
</svg>
