<svg width="36" height="36" viewBox="0 0 36 36" fill="none" xmlns="http://www.w3.org/2000/svg">
<path d="M15.2463 2.0726C11.0643 2.36424 7.54485 3.47524 5.57162 5.11396C4.15796 6.28052 2.99464 8.41919 2.4498 10.8217C1.80187 13.6964 1.86077 19.3209 2.58233 21.9734C3.49531 25.3759 5.60107 27.7506 8.67872 28.82L9.72424 29.181V31.0142C9.72424 33.5417 9.93039 34 11.079 34C11.506 34 11.7269 33.8333 12.8608 32.7223C13.5676 32.0141 14.3922 31.1531 14.6868 30.8059L15.2169 30.1809H18.1031C21.3427 30.167 23.0067 29.9865 25.4806 29.3893C28.9264 28.5561 31.0616 27.1257 32.3575 24.7648C33.4619 22.7372 33.8447 20.8902 33.9773 16.9184C34.1687 11.3633 33.1526 7.66927 30.8555 5.46115C29.2209 3.90575 26.1433 2.71142 22.6533 2.28091C20.4886 2.01705 17.2932 1.91983 15.2463 2.0726ZM23.3307 4.54458C25.8193 5.03064 27.7042 5.76668 28.8086 6.66937C30.0603 7.71093 31.1058 9.90516 31.5328 12.4049C31.7832 13.8492 31.7832 18.0016 31.5328 19.6959C31.0469 23.0566 29.6627 25.2092 27.2771 26.348C25.3775 27.2507 21.6372 27.8756 18.1031 27.8895H15.9384L15.3789 28.5561C15.0549 28.9172 14.0241 30.0698 13.0522 31.1253C10.6225 33.7917 10.6961 33.8195 10.6372 30.0004C10.6078 27.7506 10.5636 27.0562 10.4163 27.0562C10.3133 27.0562 9.73896 26.834 9.14994 26.5702C7.72156 25.9175 6.27845 24.5704 5.6158 23.2788C4.71754 21.4873 4.54083 20.5152 4.4672 17.0989C4.36412 12.8215 4.65863 10.9051 5.71888 8.87748C7 6.4055 9.50335 5.01675 13.8032 4.35015C15.747 4.04463 21.3722 4.16961 23.3307 4.54458Z" fill="#ffffff"/>
<path d="M17.4405 7.96088C17.308 8.2803 17.5142 8.44695 18.0885 8.44695C19.9292 8.46083 22.1822 9.37741 23.5811 10.7106C24.9359 11.9744 25.5691 13.4187 25.8488 15.849C25.9519 16.6684 26.2464 17.0294 26.5262 16.6267C26.6882 16.3906 26.5557 14.9046 26.2612 13.7936C25.4954 10.8911 22.9626 8.58582 19.8114 7.96088C18.4566 7.69702 17.5436 7.69702 17.4405 7.96088Z" fill="#ffffff"/>
<path d="M11.1232 8.9886C10.49 9.34968 9.62117 10.1968 9.34139 10.6968C8.9438 11.4189 9.14995 12.1827 10.2838 14.3492C12.6399 18.8071 15.3789 21.3902 20.1058 23.6122C22.4766 24.7232 23.0951 24.862 23.9492 24.4454C24.9505 23.9593 26.0697 22.6123 26.0697 21.904C26.0697 21.4874 24.9947 20.5291 23.5221 19.5848C21.9465 18.5988 21.6078 18.5988 20.5476 19.6403C19.8113 20.3625 19.7082 20.418 19.237 20.3486C17.0723 20.0153 14.1125 17.1822 13.7443 15.0852C13.6707 14.5992 13.7002 14.5297 14.4512 13.877C15.5409 12.9188 15.5409 12.5299 14.407 10.9467C13.1848 9.22469 12.6694 8.72474 12.0656 8.72474C11.7858 8.72474 11.3735 8.83584 11.1232 8.9886Z" fill="#ffffff"/>
<path d="M18.324 10.044C18.1914 10.3634 18.3682 10.4884 19.1044 10.5995C21.6667 10.9606 23.5663 12.8076 23.5663 14.9602C23.5663 15.7518 23.8755 16.1267 24.2437 15.7934C24.4204 15.6268 24.4351 15.4185 24.3173 14.6546C23.9639 12.3077 22.403 10.6411 19.9585 10.0301C19.0014 9.78012 18.4271 9.78012 18.324 10.044Z" fill="#ffffff"/>
<path d="M18.8835 12.3633C18.913 12.6132 19.0602 12.6966 19.5462 12.7799C19.8849 12.8354 20.3266 12.9743 20.5181 13.0993C20.9156 13.3354 21.328 14.127 21.3869 14.7658C21.4163 15.0713 21.5047 15.1824 21.7256 15.1824C22.2998 15.1824 22.1526 13.7659 21.4752 12.9604C21.0776 12.4744 20.1205 12.0716 19.3989 12.0577C18.8982 12.0577 18.8393 12.0994 18.8835 12.3633Z" fill="#ffffff"/>
</svg>
