<svg width="30" height="30" viewBox="0 0 30 30" fill="none" xmlns="http://www.w3.org/2000/svg">
<g clip-path="url(#clip0_301_217)">
<path d="M14.8302 0.0164013C14.5538 0.02812 13.785 0.0937443 13.4842 0.131245C11.1997 0.417183 9.06305 1.17656 7.15925 2.38124C5.55376 3.39843 4.04769 4.76718 2.90299 6.24609C0.90218 8.83124 -0.0679084 11.8641 0.00969872 15.293C0.0776049 18.4523 0.926433 21.1453 2.62651 23.6016C4.0671 25.6805 5.9806 27.3656 8.10994 28.432C9.83912 29.2969 11.6241 29.7656 13.9086 29.9578C14.3791 29.9976 16.3605 29.9953 17.0857 29.9578C20.0566 29.7937 22.5837 29.4094 24.5796 28.8164C24.7276 28.7742 24.941 28.7086 25.0598 28.6758C25.1835 28.6406 25.2708 28.6008 25.2708 28.5844C25.2708 28.5586 24.2061 24.5648 24.1649 24.443C24.1552 24.4101 24.0946 24.4219 23.7114 24.5414C21.2304 25.3195 19.004 25.6734 16.1035 25.7578C13.6346 25.8281 11.9612 25.5375 10.2951 24.75C7.61035 23.4797 5.62894 20.9414 4.9523 17.8945C4.75101 16.9945 4.66613 16.282 4.63945 15.2578C4.58367 13.0617 5.15602 11.0953 6.36863 9.31171C7.37267 7.83749 8.80113 6.49453 10.249 5.65781C12.0631 4.6125 14.0687 4.14609 16.346 4.24218C17.8787 4.30546 19.1205 4.54453 20.3015 5.0039C22.5594 5.88515 24.2474 7.45546 25.0525 9.42187C25.4673 10.4391 25.671 11.4844 25.7001 12.75C25.7219 13.7227 25.6273 14.4 25.329 15.3867C24.827 17.0602 24.1043 18.3211 23.3743 18.7992C23.0857 18.9891 22.7195 19.0969 22.4527 19.0734C22.1568 19.0453 22.0453 18.7969 22.0453 18.1641C22.0453 17.8055 22.0816 17.5336 22.2175 16.9102C22.3023 16.5141 23.7114 9.52265 23.9272 8.41406C23.9733 8.17499 24.017 7.96171 24.0243 7.93828C24.0364 7.90078 23.9127 7.89843 21.6475 7.89843H19.2563L19.2441 7.95C19.2247 8.03437 19.0622 8.86874 19.0622 8.88984C19.0622 8.89921 18.9604 8.82187 18.8391 8.71874C18.1285 8.11874 17.1827 7.69687 16.1641 7.52109C15.8828 7.47187 15.7761 7.46718 15.1698 7.46718C14.6047 7.46718 14.4325 7.47656 14.1463 7.51875C12.9337 7.69452 11.9006 8.08828 10.9741 8.72812C10.2175 9.25078 9.44139 10.0266 8.86176 10.8375C7.94018 12.1289 7.35812 13.575 7.13258 15.1406C7.04527 15.75 7.02344 16.057 7.02344 16.7109C7.02344 17.4023 7.05254 17.6976 7.16896 18.2391C7.44301 19.5094 8.13662 20.7305 9.11883 21.6797C10.1471 22.6734 11.3161 23.2008 12.7567 23.3226C13.3145 23.3719 14.139 23.325 14.7696 23.2125C16.2587 22.9476 17.6192 22.2961 18.6015 21.382C18.7615 21.232 18.8973 21.1148 18.9022 21.1195C18.9046 21.1242 18.9774 21.2273 19.0647 21.3492C19.5958 22.1086 20.5198 22.7062 21.4584 22.8984C22.3096 23.0742 23.6192 22.8984 24.616 22.4766C25.9184 21.9258 27.1285 20.8617 28.118 19.4016C29.0275 18.0562 29.5998 16.65 29.8545 15.1312C30.0558 13.9383 30.0412 12.4172 29.8157 10.9383C29.4446 8.48203 28.5012 6.40312 26.9442 4.59374C26.6265 4.22578 25.7607 3.38671 25.3921 3.0914C23.2021 1.33593 20.6532 0.36562 17.4859 0.0843697C16.6807 0.011713 15.599 -0.0164108 14.8302 0.0164013ZM16.0647 12.3398C16.5158 12.4172 16.8456 12.5742 17.1487 12.8648C17.6774 13.3711 17.903 14.0484 17.8666 15.0234C17.8351 15.8203 17.5926 16.5492 17.1318 17.2148C16.5497 18.0586 15.9458 18.4922 15.1213 18.6609C15.0412 18.6773 14.8084 18.6891 14.5998 18.6891C14.1584 18.6891 13.9086 18.6422 13.5934 18.4922C13.0259 18.225 12.5335 17.5687 12.3662 16.8539C12.2692 16.4414 12.2813 15.8461 12.3953 15.3305C12.6015 14.4164 13.2732 13.3523 13.9693 12.8461C14.2264 12.6586 14.4301 12.5508 14.7138 12.4547C15.131 12.3094 15.633 12.2672 16.0647 12.3398Z" fill="#ffffff"/>
</g>
<defs>
<clipPath id="clip0_301_217">
<rect width="30" height="30" fill="white"/>
</clipPath>
</defs>
</svg>
