<svg width="30" height="30" viewBox="0 0 30 30" fill="none" xmlns="http://www.w3.org/2000/svg">
<path d="M12.4541 0.142857C8.54586 0.415585 5.25687 1.45455 3.41284 2.98701C2.09174 4.07792 1.00458 6.07792 0.495405 8.32467C-0.110099 11.013 -0.0550535 16.2727 0.619258 18.7532C1.47247 21.9351 3.44036 24.1558 6.31651 25.1558L7.29357 25.4935V27.2078C7.29357 29.5714 7.48623 30 8.55963 30C8.95871 30 9.16513 29.8442 10.2248 28.8052C10.8853 28.1429 11.656 27.3377 11.9312 27.013L12.4266 26.4286H15.1238C18.1514 26.4156 19.7064 26.2468 22.0183 25.6883C25.2385 24.9091 27.2339 23.5714 28.4449 21.3636C29.4771 19.4675 29.8349 17.7403 29.9587 14.026C30.1376 8.83117 29.1881 5.37662 27.0413 3.31169C25.5138 1.85714 22.6376 0.740259 19.3761 0.337662C17.3532 0.09091 14.367 0 12.4541 0.142857ZM20.0092 2.45455C22.3349 2.90909 24.0963 3.5974 25.1284 4.44156C26.2982 5.41558 27.2752 7.46753 27.6743 9.80519C27.9083 11.1558 27.9083 15.039 27.6743 16.6234C27.2202 19.7662 25.9266 21.7792 23.6972 22.8442C21.922 23.6883 18.4266 24.2727 15.1238 24.2857H13.1009L12.578 24.9091C12.2752 25.2468 11.3119 26.3247 10.4037 27.3117C8.13302 29.8052 8.20183 29.8312 8.14678 26.2597C8.11926 24.1558 8.07797 23.5065 7.94036 23.5065C7.84403 23.5065 7.30733 23.2987 6.75687 23.0519C5.42201 22.4416 4.07339 21.1818 3.45412 19.974C2.61467 18.2987 2.44953 17.3896 2.38073 14.1948C2.2844 10.1948 2.55963 8.4026 3.55045 6.50649C4.7477 4.19481 7.08715 2.8961 11.1055 2.27273C12.922 1.98701 18.1789 2.1039 20.0092 2.45455Z" fill="#7D3DAF"/>
<path d="M14.5046 5.64936C14.3807 5.94807 14.5734 6.10391 15.1101 6.10391C16.8303 6.1169 18.9358 6.97404 20.2431 8.22079C21.5092 9.40261 22.1009 10.7533 22.3624 13.026C22.4587 13.7922 22.7339 14.1299 22.9954 13.7533C23.1468 13.5325 23.0229 12.1429 22.7477 11.1039C22.0321 8.38963 19.6651 6.23378 16.7202 5.64936C15.4541 5.40261 14.6009 5.40261 14.5046 5.64936Z" fill="#7D3DAF"/>
<path d="M8.60091 6.6104C8.00916 6.94806 7.19724 7.74027 6.93577 8.2078C6.56421 8.88313 6.75687 9.59741 7.8165 11.6234C10.0183 15.7922 12.578 18.2078 16.9954 20.2857C19.211 21.3247 19.789 21.4546 20.5871 21.0649C21.5229 20.6104 22.5688 19.3507 22.5688 18.6883C22.5688 18.2987 21.5642 17.4026 20.1881 16.5195C18.7156 15.5974 18.3991 15.5974 17.4082 16.5714C16.7202 17.2468 16.6238 17.2987 16.1835 17.2338C14.1605 16.9221 11.3945 14.2727 11.0504 12.3117C10.9816 11.8572 11.0092 11.7922 11.711 11.1818C12.7293 10.2857 12.7293 9.92209 11.6697 8.44157C10.5275 6.83118 10.0459 6.36365 9.48164 6.36365C9.22017 6.36365 8.83485 6.46754 8.60091 6.6104Z" fill="#7D3DAF"/>
<path d="M15.3303 7.59742C15.2064 7.89612 15.3716 8.013 16.0596 8.1169C18.4541 8.45456 20.2294 10.1818 20.2294 12.1948C20.2294 12.9351 20.5183 13.2857 20.8624 12.974C21.0275 12.8182 21.0413 12.6234 20.9312 11.9091C20.6009 9.7143 19.1422 8.15586 16.8578 7.58443C15.9633 7.35067 15.4266 7.35067 15.3303 7.59742Z" fill="#7D3DAF"/>
<path d="M15.8532 9.76622C15.8807 9.99999 16.0183 10.0779 16.4725 10.1558C16.789 10.2078 17.2018 10.3377 17.3807 10.4545C17.7523 10.6753 18.1376 11.4156 18.1927 12.013C18.2202 12.2987 18.3027 12.4026 18.5092 12.4026C19.0459 12.4026 18.9083 11.0779 18.2752 10.3247C17.9037 9.87012 17.0092 9.4935 16.3349 9.48051C15.867 9.48051 15.8119 9.51947 15.8532 9.76622Z" fill="#7D3DAF"/>
</svg>
