<svg width="30" height="30" viewBox="0 0 30 30" fill="none" xmlns="http://www.w3.org/2000/svg">
<path d="M12.587 8.57612C11.5174 8.66417 10.9206 8.92177 10.6826 9.39786C10.5783 9.6033 10.5913 9.6196 10.9076 9.70112C11.3837 9.82177 11.7783 10.0892 11.9446 10.3989C12.1826 10.8359 12.2576 11.5239 12.2609 13.2881C12.2609 15.3261 12 16.2359 11.4163 16.2457C10.8717 16.2522 10.0956 15.2642 8.87282 13.0174C8.60217 12.5185 8.34456 11.9446 8.08043 11.2337C7.81304 10.5196 7.71195 10.2913 7.54239 10.037C7.36304 9.76634 7.2 9.62612 6.86413 9.46634L6.60326 9.34243H4.39565C2.20761 9.34243 2.18804 9.34243 2.09674 9.4109C1.9663 9.50873 1.91413 9.68482 1.95652 9.9033C1.98587 10.0663 2.22717 10.6794 2.46848 11.2174C2.52065 11.3348 2.68043 11.687 2.82391 12C3.14021 12.7044 4.06304 14.5663 4.45108 15.2935C6.05543 18.2903 7.58478 20.475 9.08478 21.9131C10.4478 23.2174 12.2576 24.1142 13.9565 24.3229C14.3446 24.3718 15.2739 24.3881 15.7011 24.3555C16.3141 24.3066 16.7674 24.1924 16.9337 24.0392C17.1261 23.8663 17.2402 23.475 17.2533 22.9566C17.2663 22.2783 17.3967 21.6392 17.6054 21.212C17.7587 20.9055 17.9283 20.7261 18.15 20.6446C18.4467 20.5337 18.7239 20.625 19.125 20.9609C19.3859 21.1826 19.5456 21.3587 20.263 22.2229C21.2543 23.4131 22.0206 24.0653 22.7054 24.2968C22.9011 24.3653 22.9565 24.3653 24.962 24.3653C26.3315 24.3653 27.0685 24.3522 27.1728 24.3294C27.5772 24.2348 27.9457 23.9903 28.0728 23.7261C28.1967 23.475 28.138 22.9729 27.9522 22.6892C27.2674 21.6424 26.6543 20.9153 25.2848 19.5326C24.7598 19.0044 24.2543 18.4761 24.1598 18.3587C23.7293 17.8207 23.687 17.4229 24.0065 16.8098C24.1859 16.4642 24.3783 16.187 25.5554 14.5892C26.7 13.0337 27.4663 11.8076 27.825 10.9566C28.0206 10.4837 28.0859 10.2359 28.0891 9.93591C28.0924 9.6946 28.0859 9.67504 28.0043 9.6033C27.8054 9.43373 27.6652 9.42395 25.0793 9.42395C23.5239 9.42395 22.6435 9.43699 22.5391 9.45982C22.4478 9.47612 22.2978 9.54134 22.2033 9.59678C21.975 9.73373 21.9033 9.87069 21.4533 11.0022C21.0652 11.9805 20.7913 12.5609 20.3706 13.2881C19.2359 15.2479 18.3815 16.2718 17.8793 16.2718C17.687 16.2718 17.4554 16.0076 17.3315 15.6359C17.1783 15.1892 17.1717 14.7913 17.237 11.2011C17.2565 10.1381 17.2533 9.92612 17.2076 9.71743C17.0576 8.99677 16.7283 8.73917 15.8185 8.62177C15.3848 8.56634 13.0989 8.53373 12.587 8.57612Z" fill="#ffffff"/>
</svg>
